<?xml version="1.0" encoding="UTF-8" standalone="no"?>
<svg
   viewBox="0 0 500 500"
   version="1.1"
   id="svg177"
   sodipodi:docname="500-error.svg"
   inkscape:version="1.3 (0e150ed6c4, 2023-07-21)"
   xmlns:inkscape="http://www.inkscape.org/namespaces/inkscape"
   xmlns:sodipodi="http://sodipodi.sourceforge.net/DTD/sodipodi-0.dtd"
   xmlns="http://www.w3.org/2000/svg"
   xmlns:svg="http://www.w3.org/2000/svg">
  <sodipodi:namedview
     id="namedview177"
     pagecolor="#ffffff"
     bordercolor="#000000"
     borderopacity="0.25"
     inkscape:showpageshadow="2"
     inkscape:pageopacity="0.0"
     inkscape:pagecheckerboard="0"
     inkscape:deskcolor="#d1d1d1"
     inkscape:zoom="2.378"
     inkscape:cx="249.57948"
     inkscape:cy="261.35408"
     inkscape:window-width="2560"
     inkscape:window-height="1385"
     inkscape:window-x="-8"
     inkscape:window-y="-8"
     inkscape:window-maximized="1"
     inkscape:current-layer="svg177" />
  <defs
     id="defs1">
    <inkscape:path-effect
       effect="perspective-envelope"
       up_left_point="129.95692,123.20996"
       up_right_point="182.36334,123.20996"
       down_left_point="81.939309,153.80795"
       down_right_point="230.38095,153.80795"
       id="path-effect186"
       is_visible="true"
       lpeversion="1"
       deform_type="perspective"
       horizontal_mirror="true"
       vertical_mirror="false"
       overflow_perspective="false" />
    <rect
       x="81.160639"
       y="125.31539"
       width="193.43987"
       height="85.365854"
       id="rect183" />
    <rect
       x="187.97309"
       y="104.70984"
       width="265.76956"
       height="120.26913"
       id="rect182" />
    <clipPath
       id="freepik--clip-path--inject-4">
      <path
         d="M256.53,361.25c5.06,29.3-14,57.06-42.59,62s-55.87-14.8-60.94-44.1c-4.26-24.66,9.1-45.21,30.49-54a61.87,61.87,0,0,1,19.73-4.49C229.07,319.07,251.87,334.32,256.53,361.25Z"
         style="fill:none"
         id="path1" />
    </clipPath>
    <rect
       x="81.160639"
       y="125.31539"
       width="193.43987"
       height="85.365854"
       id="rect184" />
    <rect
       x="81.160639"
       y="125.31539"
       width="193.43987"
       height="85.365854"
       id="rect185" />
  </defs>
  <g
     id="freepik--Floor--inject-4"
     style="display:inline"
     transform="matrix(-1,0,0,1,495.915,0)">
    <path
       id="freepik--floor--inject-4"
       d="m 410.25,259 c -89.63,-51.53 -234.95,-51.53 -324.58,0 -89.63,51.53 -89.62,135.09 0,186.62 89.62,51.53 234.94,51.54 324.57,0 89.63,-51.54 89.63,-135.12 0.01,-186.62 z"
       style="fill:#f5f5f5" />
  </g>
  <g
     id="freepik--Shadows--inject-4"
     style="display:inline"
     transform="matrix(-1,0,0,1,495.915,0)">
    <ellipse
       id="freepik--Shadow--inject-4"
       cx="352.22079"
       cy="352.29791"
       rx="14.26689"
       ry="7.6701846"
       style="display:inline;fill:#e0e0e0;stroke-width:0.336062" />
    <path
       id="freepik--shadow--inject-4"
       d="m 302.71,395.39 c -16.36,-1.51 -30.28,-0.47 -41.34,1.82 -1.46,-10.44 -10,-20.66 -25.68,-28.64 -34.54,-17.61 -90.55,-17.61 -125.09,0 -34.54,17.61 -34.54,46.16 0,63.77 34.54,17.61 90.55,17.6 125.09,0 a 74.66,74.66 0 0 0 10.36,-6.34 143.47,143.47 0 0 0 34.5,3.53 l 1.19,0.39 a 98.94,98.94 0 0 0 29.07,4.75 c 7.63,0 14,-1.21 17.6,-3.66 a 10.91,10.91 0 0 0 1.08,-0.83 c 4.72,0.14 9.85,0.33 15.25,-0.75 7.83,-1.58 11.67,-5 11.45,-9.12 C 355.64,410 325.6,397.49 302.71,395.39 Z M 281,426.21 c -6.72,-2.47 -10.3,-5.84 -9.9,-9.38 0.53,-4.66 7.41,-8.86 15.67,-9.55 1.14,-0.09 2.31,-0.14 3.47,-0.14 6.37,0 12.9,1.36 17,3.35 a 18.05,18.05 0 0 0 -5.42,0.91 c -2.47,0.85 -3.61,2.83 -3,5.17 0.48,1.76 2,3.69 4.32,5.54 -5.73,2.55 -13.55,3.83 -22.14,4.1 z m 26.88,-12.47 a 22.35,22.35 0 0 1 3.61,0.3 1.43,1.43 0 0 1 0.09,0.27 c 0.49,1.74 -1.34,3.92 -5.08,6.11 -2.57,-1.72 -4.11,-3.45 -4.45,-4.71 -0.11,-0.39 -0.23,-0.84 0.88,-1.22 a 15.24,15.24 0 0 1 4.93,-0.75 z M 290,428.81 a 50.6,50.6 0 0 0 15.84,-4.33 l 0.51,-0.26 a 46.88,46.88 0 0 0 17.36,5.5 c -7.24,2.58 -20.57,2.2 -33.71,-0.91 z m 38.11,-2 a 47.33,47.33 0 0 1 -18.4,-4.59 c 3.56,-2.39 5.31,-4.89 5.23,-7.46 a 29.4,29.4 0 0 1 9.7,4.68 c 2.65,2 4.09,4.18 4,5.91 a 3,3 0 0 1 -0.55,1.5 z m 16,-0.63 c -4.44,0.9 -8.62,0.71 -12.48,0.73 a 6.47,6.47 0 0 0 0.24,-1.33 c 0.2,-2.88 -1.66,-6 -5.24,-8.73 a 33.53,33.53 0 0 0 -13.14,-5.81 c -4.39,-5.46 -17.77,-7.82 -27,-7.06 -9.92,0.84 -17.94,6.18 -18.65,12.44 -0.27,2.37 0.36,6.22 5.69,9.74 a 147.72,147.72 0 0 1 -24.14,-2.85 c 8.14,-7 12.21,-15 12.22,-22.88 10.79,-2.28 24.52,-3.33 40.81,-1.83 23.95,2.2 50.14,14.7 50.52,21.84 0.06,2.17 -3.11,4.63 -8.85,5.78 z"
       style="display:inline;fill:#e0e0e0" />
  </g>
  <g
     id="freepik--Clouds--inject-4"
     transform="matrix(-1.4202341,0,0,1.5767454,567.77043,-29.725433)">
    <g
       id="freepik--clouds--inject-4">
      <path
         d="m 137.17,59.22 -11.46,6.61 a 13,13 0 0 0 0.1,-1.51 V 61 c 0,-5.91 -4.15,-8.3 -9.27,-5.35 A 17.92,17.92 0 0 0 111,61 c -0.83,-7.43 -6.66,-10.2 -13.74,-6.11 -7.65,4.42 -13.86,15.16 -13.86,24 v 5 a 13.07,13.07 0 0 0 1.18,5.75 l -9.52,5.49 a 11.37,11.37 0 0 0 -5.14,8.9 c 0,3.28 2.3,4.61 5.14,3 l 62.09,-35.85 a 11.38,11.38 0 0 0 5.14,-8.9 c 0.02,-3.37 -2.29,-4.7 -5.12,-3.06 z"
         style="fill:#ebebeb"
         id="path2" />
      <path
         d="m 183.72,79 -7.31,4.22 a 8,8 0 0 0 0.06,-1 v -2.09 c 0,-3.76 -2.64,-5.29 -5.9,-3.4 a 11.39,11.39 0 0 0 -3.52,3.38 c -0.54,-4.74 -4.25,-6.5 -8.76,-3.89 -4.88,2.81 -8.84,9.66 -8.84,15.3 v 3.17 a 8.27,8.27 0 0 0 0.75,3.66 l -6.07,3.51 a 7.23,7.23 0 0 0 -3.28,5.67 c 0,2.09 1.47,2.94 3.28,1.89 L 183.72,86.57 A 7.25,7.25 0 0 0 187,80.89 C 187,78.8 185.53,78 183.72,79 Z"
         style="fill:#ebebeb"
         id="path3" />
    </g>
  </g>
  <g
     id="freepik--Plant--inject-4"
     style="display:inline"
     transform="matrix(-1,0,0,1,495.915,0)">
    <g
       id="freepik--Plants--inject-4">
      <path
         d="m 345.19,350.33 a 126.12,126.12 0 0 1 2.06,-35 c 2.66,-13.82 10.59,-25 20.08,-30.26 3.29,-1.81 10.17,-3.75 14.67,0.31 4.29,3.87 2,10.1 -3.25,16.51 -10.34,12.62 -20.53,23.18 -23.32,39.74 l -1.16,12.28 z"
         style="fill:#ce78ce"
         id="path4" />
      <path
         d="m 345.19,350.33 a 126.12,126.12 0 0 1 2.06,-35 c 2.66,-13.82 10.59,-25 20.08,-30.26 3.29,-1.81 10.17,-3.75 14.67,0.31 4.29,3.87 2,10.1 -3.25,16.51 -10.34,12.62 -20.53,23.18 -23.32,39.74 l -1.16,12.28 z"
         style="opacity:0.2"
         id="path5" />
      <path
         d="m 348.39,348.78 a 0.52,0.52 0 0 1 -0.52,-0.52 c 0,-16 3.39,-29.85 10.37,-42.35 4.6,-8.26 10.24,-14.26 17.22,-18.34 a 0.52,0.52 0 0 1 0.71,0.19 0.51,0.51 0 0 1 -0.19,0.7 c -6.82,4 -12.33,9.85 -16.85,18 -6.88,12.35 -10.23,26 -10.23,41.85 a 0.51,0.51 0 0 1 -0.51,0.47 z"
         style="fill:#ffffff"
         id="path6" />
      <path
         d="m 359.61,356.09 c 0,-3.93 2.62,-11.21 8.32,-18.25 6.3,-7.8 15.57,-13.26 16.62,-18.19 1.27,-5.92 -4.17,-8.8 -12.22,-6 -9.67,3.42 -19.21,16.73 -18.06,40.23 z"
         style="fill:#ce78ce"
         id="path7" />
      <path
         d="m 357.29,352.59 a 0.47,0.47 0 0 0 0.31,-0.43 c 1.19,-20.82 13.23,-31.51 19.63,-34.34 a 0.5,0.5 0 0 0 0.25,-0.65 0.49,0.49 0 0 0 -0.65,-0.25 c -7.08,3.13 -19,13.93 -20.21,35.19 a 0.51,0.51 0 0 0 0.47,0.52 0.45,0.45 0 0 0 0.2,-0.04 z"
         style="fill:#ffffff"
         id="path8" />
    </g>
  </g>
  <g
     id="freepik--Character--inject-4"
     transform="matrix(-1,0,0,1,495.915,0)">
    <g
       id="freepik--Cat--inject-4">
      <g
         id="freepik--Yarn--inject-4">
        <path
           d="M 309.71,429.76 A 98.94,98.94 0 0 1 280.64,425 l -1.19,-0.39 c -16.45,0.47 -35.38,-2.67 -49.2,-7.82 l 1.14,-3.06 c 11.37,4.23 26.75,7.09 41,7.55 -5.34,-3.52 -6,-7.37 -5.69,-9.73 0.71,-6.27 8.72,-11.61 18.65,-12.45 9.22,-0.76 22.6,1.6 27,7.07 a 33.38,33.38 0 0 1 13.14,5.8 c 3.58,2.75 5.44,5.85 5.24,8.73 a 6.47,6.47 0 0 1 -0.24,1.33 c 3.86,0 8,0.17 12.48,-0.73 5.74,-1.15 8.95,-3.61 8.84,-5.74 -0.38,-7.14 -26.57,-19.64 -50.52,-21.84 -31.9,-2.94 -54,3.89 -63.31,10.63 l -1.92,-2.64 c 9.72,-7.07 32.73,-14.26 65.53,-11.24 22.88,2.1 52.93,14.56 53.48,24.92 0.22,4.09 -3.63,7.54 -11.45,9.12 -5.41,1.08 -10.54,0.89 -15.26,0.75 a 9.69,9.69 0 0 1 -1.07,0.83 c -3.59,2.46 -9.96,3.67 -17.58,3.67 z m -20.83,-5.85 c 13.16,3.11 26.49,3.48 33.71,0.9 a 46.82,46.82 0 0 1 -17.36,-5.5 l -0.51,0.26 a 50.87,50.87 0 0 1 -15.84,4.34 z m 19.71,-6.55 a 47.42,47.42 0 0 0 18.4,4.58 3.15,3.15 0 0 0 0.5,-1.46 c 0.12,-1.72 -1.33,-3.88 -4,-5.91 a 29.6,29.6 0 0 0 -9.7,-4.68 c 0.11,2.57 -1.64,5.11 -5.2,7.47 z m -19.47,-15.13 c -1.17,0 -2.33,0 -3.47,0.14 -8.26,0.69 -15.15,4.89 -15.67,9.55 -0.4,3.54 3.18,6.91 9.89,9.38 8.61,-0.27 16.43,-1.55 22.21,-4.1 -2.34,-1.85 -3.83,-3.78 -4.31,-5.54 -0.63,-2.34 0.51,-4.32 3,-5.17 a 18,18 0 0 1 5.42,-0.91 c -4.19,-1.99 -10.7,-3.35 -17.07,-3.35 z m 17.64,6.6 a 15.16,15.16 0 0 0 -4.95,0.75 c -1.11,0.38 -1,0.83 -0.88,1.22 0.34,1.26 1.87,3 4.45,4.71 3.74,-2.19 5.57,-4.37 5.08,-6.11 a 1.43,1.43 0 0 0 -0.09,-0.27 23.65,23.65 0 0 0 -3.61,-0.3 z"
           style="fill:#963696"
           id="path9" />
        <path
           d="m 319.12,425.73 a 68.34,68.34 0 0 0 6.78,1.2 12.76,12.76 0 0 0 1.41,-0.83 9.69,9.69 0 0 0 1.07,-0.83 c 0,0 -3.2,-0.16 -5.79,-0.46 a 24.55,24.55 0 0 1 -3.47,0.92 z"
           style="fill:#37474f"
           id="path10" />
        <path
           d="m 302.82,420.43 c 0.65,-0.27 1.29,-0.56 1.9,-0.86 l 0.51,-0.26 a 20.91,20.91 0 0 1 -3.15,-2.11 c -0.77,0.34 -1.59,0.65 -2.43,0.95 a 13.06,13.06 0 0 0 3.17,2.28 z"
           style="fill:#37474f"
           id="path11" />
        <path
           d="m 310.46,409.4 a 2.49,2.49 0 0 1 -0.24,1.8 13.53,13.53 0 0 1 3.22,0.82 5.45,5.45 0 0 0 0.38,-2.13 16.47,16.47 0 0 0 -3.45,-0.76 1.43,1.43 0 0 1 0.09,0.27 z"
           style="fill:#37474f"
           id="path12" />
        <path
           d="m 268.46,421.09 a 24.29,24.29 0 0 0 5,3.54 q 3,0.06 6,0 a 49.41,49.41 0 0 1 -7,-3.33 c -1.35,-0.06 -2.67,-0.12 -4,-0.21 z"
           style="fill:#37474f"
           id="path13" />
        <path
           d="m 236.08,401.72 1.92,2.64 c 3.66,-2.66 9.33,-5.33 16.81,-7.41 a 25.44,25.44 0 0 0 0.84,-3.57 c -8.78,2.26 -15.4,5.31 -19.57,8.34 z"
           style="fill:#37474f"
           id="path14" />
        <path
           d="m 241.25,416.81 c -3.5,-0.92 -6.83,-1.94 -9.86,-3.07 l -1.14,3.06 c 2.46,0.92 5.09,1.76 7.83,2.54 1.09,-0.79 2.15,-1.64 3.17,-2.53 z"
           style="fill:#37474f"
           id="path15" />
      </g>
      <g
         id="freepik--cat--inject-4">
        <path
           d="m 178,278.37 h -0.07 c -12.42,-0.47 -24.18,-9.7 -35.55,-18.62 -9.72,-7.63 -18.91,-14.84 -26.76,-14.84 a 1.63,1.63 0 0 1 0,-3.26 c 9,0 18.6,7.54 28.78,15.53 11,8.6 22.29,17.49 33.66,17.92 a 1.64,1.64 0 0 1 -0.06,3.27 z"
           style="fill:#963696"
           id="path16" />
        <g
           id="freepik--Tail--inject-4">
          <path
             d="m 97.27,350.05 c -8.84,-3.28 -16.4,-15.37 -13.11,-28.83 4,-16.22 21.77,-27.71 31.54,-37.12 18.16,-17.49 29.28,-31.47 23.49,-56.63 -5.07,-22 -25.46,-29.36 -37.58,-28.91 -15,0.57 -24.48,6.83 -23.65,11.7 0.37,2.16 4.46,3.12 7.69,4.31 10,3.66 13.12,5.9 16.32,10.21 4.87,6.56 5.69,15.13 4.64,15.72 -1.05,0.59 -2.44,-4.34 -9.09,-7.18 -6.65,-2.84 -9.9,-0.79 -9.84,0.69 0.06,1.48 6.18,2.88 8,11.68 1.54,7.32 1.17,16.75 -9.84,31.82 -6.78,9.28 -22.19,26.65 -18.83,48.82 3.36,22.17 20.24,30.27 27.19,30.67 z"
             style="fill:#ce78ce"
             id="path17" />
          <path
             d="m 97.27,350.05 c -8.84,-3.28 -16.4,-15.37 -13.11,-28.83 4,-16.22 21.77,-27.71 31.54,-37.12 18.16,-17.49 29.28,-31.47 23.49,-56.63 -5.07,-22 -25.46,-29.36 -37.58,-28.91 -15,0.57 -24.48,6.83 -23.65,11.7 0.37,2.16 4.46,3.12 7.69,4.31 10,3.66 13.12,5.9 16.32,10.21 4.87,6.56 5.69,15.13 4.64,15.72 -1.05,0.59 -2.44,-4.34 -9.09,-7.18 -6.65,-2.84 -9.9,-0.79 -9.84,0.69 0.06,1.48 6.18,2.88 8,11.68 1.54,7.32 1.17,16.75 -9.84,31.82 -6.78,9.28 -22.19,26.65 -18.83,48.82 3.36,22.17 20.24,30.27 27.19,30.67 z"
             style="opacity:0.05"
             id="path18" />
          <path
             d="m 94.2,357 3.07,-6.94 a 18.79,18.79 0 0 1 -6.76,-4.51 47.87,47.87 0 0 0 -3.09,9.57 20.16,20.16 0 0 0 6.78,1.88 z"
             style="opacity:0.15"
             id="path19" />
          <path
             d="m 123,224.4 c 1.35,-0.89 0.87,-3 0.2,-4.42 a 32.51,32.51 0 0 0 -7.2,-10.15 49.49,49.49 0 0 1 6.5,1.84 c 3.08,1 5.07,2.31 5.53,1.17 a 5.79,5.79 0 0 0 -0.12,-2.61 c -0.54,-2.12 -1.06,-2.89 -1.79,-3.46 a 39.49,39.49 0 0 0 -24.55,-8.21 c -15,0.57 -24.48,6.83 -23.65,11.7 0.37,2.16 4.46,3.12 7.69,4.31 10,3.66 13.12,5.9 16.32,10.21 0,0.06 3.62,1.79 5.25,2.83 a 5.66,5.66 0 0 0 2.39,1 1.75,1.75 0 0 0 1.13,-0.27 c 1.12,-0.74 0.88,-2.42 0.47,-3.69 a 51,51 0 0 0 -3,-7.25 23.3,23.3 0 0 1 10.44,5.45 c 1.25,1.15 2.96,2.45 4.39,1.55 z"
             style="fill:#963696"
             id="path20" />
        </g>
        <g
           id="freepik--Paw--inject-4">
          <path
             d="m 171.67,344.22 c 1.27,17.38 7,28.2 18.82,38.24 11.82,10.04 28.69,16 36.14,19.28 7.45,3.28 13,7.2 18.36,2.64 5.36,-4.56 4.92,-14.43 14.47,-22.27 9.55,-7.84 12.9,-10 13.15,-15.72 0.32,-7.51 -6.91,-7.32 -9.12,-6.19 0,0 -1.87,-3.2 -7.2,-2 a 10.8,10.8 0 0 0 -6.61,4.78 c 0,0 -3.32,-0.2 -6.83,3.08 -3.11,2.9 -9.16,10.69 -9.16,10.69 0,0 6.46,-10.15 3.64,-21 -2.55,-9.82 -8.83,-12.5 -8.83,-12.5 0,0 2.7,-1.38 9.92,-0.09 0,0 -3,-8.38 -16.18,-11.63 -13.18,-3.25 -21.89,6.18 -21.89,6.18 z"
             style="fill:#ce78ce"
             id="path21" />
          <path
             d="m 252,360.29 v 0 a 11,11 0 0 0 -2.36,2.67 c 2,0 6.19,0.21 7.66,5.31 0.04,0 1.7,-5.75 -5.3,-7.98 z"
             style="opacity:0.15"
             id="path22" />
          <path
             d="m 264.74,366.18 c 0,0 2.71,-1.53 1.14,-6.55 a 6.59,6.59 0 0 0 -2.39,0.57 6.72,6.72 0 0 1 1.25,5.98 z"
             style="opacity:0.15"
             id="path23" />
          <path
             d="m 256.26,375.87 a 21.26,21.26 0 0 0 -14.88,13 c -3,7.13 -1.93,11.9 1,12.63 2.93,0.73 4.3,0.32 6.83,-3.53 2.1,-4.79 4.08,-10.73 10.29,-15.83 l 4.84,-3.95 c -0.34,-2.1 -3.08,-3.55 -8.08,-2.32 z"
             style="fill:#f28f8f"
             id="path24" />
          <path
             d="m 254.74,369.07 c -2,-0.79 -4,3.84 -1.74,4.72 1.87,0.73 4.35,-3.66 1.74,-4.72 z"
             style="fill:#ffa8a7"
             id="path25" />
          <path
             d="m 262.4,367.5 c -1.95,-0.79 -4,3.84 -1.74,4.72 1.87,0.78 4.34,-3.66 1.74,-4.72 z"
             style="fill:#f28f8f"
             id="path26" />
          <path
             d="m 268.69,367.34 c -1.95,-0.8 -4,3.83 -1.74,4.71 1.88,0.73 4.36,-3.65 1.74,-4.71 z"
             style="fill:#f28f8f"
             id="path27" />
        </g>
        <g
           id="freepik--Body--inject-4">
          <path
             d="m 151.07,299.58 c -1,5.55 -21.89,10.83 -36.23,21.64 -14.34,10.81 -27,25.55 -24.75,51.1 2.47,28 27.71,38.33 41,38.33 13.29,0 58.67,-3.52 81.9,-36.57 23.23,-33.05 -8.06,-76.57 -61.92,-74.5 z"
             style="fill:#ce78ce"
             id="path28" />
          <path
             d="m 118.39,364.31 c 0,0 7.23,-12.75 27.08,-9.23 19.85,3.52 18.07,34.27 18.07,34.27 0,0 0.22,17.19 -12.47,15.39 -12.69,-1.8 -32.68,-40.43 -32.68,-40.43 z"
             style="opacity:0.15"
             id="path29" />
          <path
             d="m 151.07,299.58 a 3.78,3.78 0 0 1 -0.92,1.72 c -0.85,10.24 2.31,23.44 14,27.07 12.71,4 27.06,1.68 36.69,-1.71 a 70.17,70.17 0 0 0 9.23,-4.06 c -11.82,-14.19 -32.72,-24.03 -59,-23.02 z"
             style="opacity:0.15"
             id="path30" />
        </g>
        <path
           d="m 159.08,372.19 h -0.35 c -44,-9.45 -60.2,-37.22 -66,-52.94 -7.5,-20.44 -8.15,-42.83 -1.62,-55.71 a 1.6457597,1.6457597 0 1 1 2.95,1.46 c -6.14,12.12 -5.43,33.46 1.78,53.11 5.53,15.08 21.15,41.74 63.58,50.86 a 1.63,1.63 0 0 1 -0.34,3.23 z"
           style="fill:#963696"
           id="path31" />
        <g
           id="freepik--yarn--inject-4">
          <path
             d="m 256.53,361.25 c 5.06,29.3 -14,57.06 -42.59,62 -28.59,4.94 -55.87,-14.8 -60.94,-44.1 -4.26,-24.66 9.1,-45.21 30.49,-54 a 61.87,61.87 0 0 1 19.73,-4.49 c 25.85,-1.59 48.65,13.66 53.31,40.59 z"
             style="fill:#963696"
             id="path32" />
          <g
             clip-path="url(#freepik--clip-path--inject-4)"
             id="g33">
            <path
               d="m 290.38,369.62 a 113.15,113.15 0 0 1 -38.3,6.05 68.11,68.11 0 0 0 7.64,-3.62 c 5.61,-3 12.62,-6.36 14.15,-13 0.3,-1.24 -1.22,-1 -1.81,-0.51 -4.38,3.61 -9.65,8.2 -15.37,11.7 a 29.17,29.17 0 0 1 -21.42,3.42 c -1.51,-0.33 -3,-0.7 -4.54,-1.11 a 49.29,49.29 0 0 0 14.79,-5.48 c 10.65,-6.07 16.12,-14.59 18,-26.46 0.22,-1.34 -1.15,-1.78 -2,-0.91 -1.64,1.63 -1.94,3.36 -2.69,5.58 -2.41,7 -5.76,11.06 -11.73,15.44 a 41.36,41.36 0 0 1 -14,6.58 c -2.56,0.64 -5.21,0.75 -7.8,1.15 a 14.53,14.53 0 0 1 -7.92,-0.76 49.77,49.77 0 0 1 -5.69,-3.12 c 11.21,-0.66 23.73,-10.57 30.93,-17.28 7.62,-7.11 13.13,-16 11.9,-26.56 -0.21,-1.89 -2.39,-0.75 -2.65,0.53 -1,4.93 -1.45,8.17 -3.75,12.87 a 36.61,36.61 0 0 1 -9.54,11.79 c -8.28,7.17 -19.68,14.89 -30.93,15.92 -1.57,-1.16 -3.13,-2.37 -4.61,-3.66 8.43,-3.15 15.63,-9.44 21.52,-16.24 a 41.57,41.57 0 0 0 8.1,-13.52 c 1.13,-3.18 3.65,-8.43 2.32,-11.76 -0.63,-1.56 -2.56,-0.08 -2.67,1 -0.79,8.11 -5.44,16 -10.61,22.21 -2.46,-6.84 -4.17,-12.85 -3.7,-20.41 a 87,87 0 0 1 1.49,-10.64 c 0.22,-1.13 0.59,-2.24 0,-3.29 -0.81,-1.51 -2.71,0.84 -2.43,1.94 -0.07,-0.28 -1,1.17 -1.09,1.27 -0.85,1.48 -0.77,3.7 -1,5.36 a 58,58 0 0 0 -0.85,8.42 c -0.18,7.44 1.88,13.84 4.75,20.55 a 66.76,66.76 0 0 1 -8.74,7 c -1.89,-1.4 -3.21,-5 -4.27,-6.93 a 65.3,65.3 0 0 1 -4.52,-8.71 c -2.77,-7.21 -2.11,-15.73 -5.13,-22.57 -0.35,-0.8 -1.82,0.12 -1.85,0.75 -0.26,9.38 1.29,19.06 5.4,27.6 1.6,3.34 3.92,9.14 6.92,12.37 a 11.32,11.32 0 0 1 -2.46,1.4 9.3,9.3 0 0 1 -2.92,0.83 c -2.38,0.16 -3.71,-2 -5.13,-3.57 a 68.37,68.37 0 0 1 -4.65,-5.81 57.7,57.7 0 0 1 -8.17,-16.06 c -1.46,-4.79 -1.12,-10.31 -3.42,-14.83 -1.11,-2.18 -3.79,0.07 -3.18,1.95 1.61,5 0.74,10.47 2.29,15.58 a 65.72,65.72 0 0 0 9.78,18.93 73.61,73.61 0 0 0 25.79,21.7 c 14,6.86 31.93,10.83 48.62,9.2 a 96.32,96.32 0 0 1 -54,-5.31 c -19.5,-7.87 -39,-25.51 -44.08,-46.56 -0.21,-0.8 -1.64,-0.36 -1.7,0.34 -1,10.41 7,21.43 13.83,28.54 7.82,8.1 16.12,15.75 26.61,20.34 11.41,5 22.85,8.33 35.4,8.56 a 149.08,149.08 0 0 0 15.17,-0.32 69.64,69.64 0 0 1 -19.42,3.58 c -8.57,0.11 -17.08,-1.41 -25.4,-3.32 -13.52,-3.11 -24.82,-8.66 -35.05,-18.14 a 80.47,80.47 0 0 1 -10.92,-13.08 c -3.1,-4.43 -7.66,-9.52 -8.82,-14.87 -0.26,-1.21 -2.27,0.12 -2.19,1 0.32,4.41 2.41,8.6 4.68,12.32 1.27,2.1 2.73,4.05 4.16,6 a 11.45,11.45 0 0 1 2.58,6.16 c 0.08,1.92 -0.62,3.52 -0.9,5.36 -0.28,1.84 -0.61,3.37 -0.9,5.06 a 65.86,65.86 0 0 0 -0.85,10.59 c -0.1,11.42 5.35,21.31 11.51,30.53 0.64,1 2.29,-0.57 2,-1.45 -3.38,-10.63 -9.88,-19.05 -9.27,-30.75 0.31,-5.82 2,-11.19 3.33,-16.74 0.11,0.12 0.23,0.26 0.34,0.36 1.94,2 4,4 6.1,5.81 1.7,1.46 3.62,3.11 3.37,5.58 a 29.48,29.48 0 0 1 -1.41,4.87 38.5,38.5 0 0 0 -1,5.54 c -0.4,3.21 -0.53,6.45 -0.77,9.67 -0.75,10.48 2,23.91 9.58,31.74 a 1.08,1.08 0 0 0 1.37,0 22.53,22.53 0 0 0 4.34,6.51 0.92,0.92 0 0 0 1.5,-1 56.65,56.65 0 0 1 -3.69,-24.09 c 7.25,3.26 17.55,2.73 24.47,0.58 a 53,53 0 0 0 15,-7 45.55,45.55 0 0 0 12.89,-12.72 c 8.84,-0.73 16.2,-3.47 23.94,-8.09 a 2.38,2.38 0 0 0 0.91,-2.12 38.51,38.51 0 0 0 5.6,-2.14 2.46,2.46 0 0 0 0.85,-2.94 53.78,53.78 0 0 0 18.45,-8.06 c 1.04,-0.64 1.42,-3.24 -0.46,-2.62 z M 193,397.53 c 0.41,-0.91 0.85,-1.83 1.32,-2.72 a 49.41,49.41 0 0 1 3.14,-5.29 2.06,2.06 0 0 0 0.17,-0.33 q 2.81,1 5.74,1.86 c 4,1.1 8.15,2.06 12.38,2.81 -0.35,0 -1.58,1.15 -1.87,1.36 -0.66,0.47 -1.34,0.94 -2,1.37 a 28.78,28.78 0 0 1 -4.17,2.23 22,22 0 0 1 -8.77,2 16.85,16.85 0 0 1 -4.4,-0.82 c -1.17,-0.34 -2.09,-1.18 -1.54,-2.47 z M 184.24,412 a 54.61,54.61 0 0 0 0,12.65 c -2.72,-7.39 -4.6,-14.86 -4.1,-22.95 a 88.83,88.83 0 0 1 3.44,-19.58 c 0,0.32 4.08,2.45 4.5,2.69 1.1,0.61 3.95,1.43 4.39,2.73 a 1.27,1.27 0 0 1 0,0.77 5.41,5.41 0 0 1 -0.83,1.62 c -4.48,6.69 -6.55,14.07 -7.4,22.07 z m 43.51,-8.57 a 46.77,46.77 0 0 1 -13.07,6.66 c -7.23,2.43 -17.94,3.54 -25.38,0 a 50,50 0 0 1 1.44,-6.45 c 3.67,1.76 9.23,1.58 12.54,1 6,-1.11 14.09,-4.48 17.42,-9.95 a 98.29,98.29 0 0 0 16.16,0.88 58.25,58.25 0 0 1 -9.11,7.86 z"
               style="opacity:0.15"
               id="path33" />
          </g>
        </g>
        <g
           style="opacity:0.15"
           id="g35">
          <path
             d="m 163.33,381.82 c -4.43,-12.52 -10.84,-11.63 -10.84,-11.63 0,0 2.63,-1.52 9.9,-0.61 0,0 -2,-5.46 -9.3,-8.71 a 50.7,50.7 0 0 0 -0.09,18.28 54.84,54.84 0 0 0 8.29,20.93 c 1.98,-4.08 4.52,-11.25 2.04,-18.26 z"
             id="path34" />
          <path
             d="m 178.74,416.72 a 27.88,27.88 0 0 1 6.72,-9.35 c 9.12,-8.33 12.35,-10.7 12.29,-16.39 -0.07,-7.52 -7.28,-7 -9.43,-5.71 0,0 -2,-3.1 -7.29,-1.63 a 10.79,10.79 0 0 0 -6.35,5.12 c 0,0 -3.57,-0.37 -7.28,3.61 a 77,77 0 0 0 -6,7.94 53.83,53.83 0 0 0 17.34,16.41 z"
             id="path35" />
        </g>
        <g
           id="freepik--paw--inject-4">
          <path
             d="m 254.62,339.1 c -0.18,-4.44 -2.87,-10.41 -6.35,-15.33 -5.8,-8.2 -14.15,-13.28 -22.57,-16 l -21.7,13.5 c 23.14,-0.78 31.11,11.4 33.25,18.2 1.48,4.7 2.73,8.32 5.47,8.32 a 2.78,2.78 0 0 0 3,-2.34 c 1.89,1.8 4.72,0.73 4.84,-1.58 a 2.44,2.44 0 0 0 2.91,-0.52 5.54,5.54 0 0 0 1.15,-4.25 z"
             style="fill:#ce78ce"
             id="path36" />
          <path
             d="M 225.7,307.73 204,321.27 a 54.81,54.81 0 0 1 8.18,0.3 62.43,62.43 0 0 0 16.63,-12.7 q -1.53,-0.63 -3.11,-1.14 z"
             style="opacity:0.15"
             id="path37" />
          <path
             d="m 253.48,343.35 a 0.1,0.1 0 0 0 0,-0.05 1.7,1.7 0 0 1 -2.21,-1.2 c -0.74,-1.77 -1,-2.6 -1.36,-3 a 14.75,14.75 0 0 1 0.62,4.77 2.44,2.44 0 0 0 2.95,-0.52 z"
             style="opacity:0.15"
             id="path38" />
          <path
             d="m 248.91,346.16 a 2.63,2.63 0 0 1 -2.35,-2.17 c -0.56,-1.86 -0.89,-2.44 -1.29,-2.84 a 12.78,12.78 0 0 1 0.46,4.3 3,3 0 0 0 3.18,0.71 z"
             style="opacity:0.15"
             id="path39" />
        </g>
        <g
           id="g47">
          <path
             d="m 90.09,372.32 c 2.18,17.29 8.44,27.79 20.81,37.2 12.37,9.41 29.5,14.48 37.1,17.35 7.6,2.87 13.35,6.5 18.48,1.67 5.13,-4.83 4.15,-14.67 13.28,-23 9.13,-8.33 12.35,-10.7 12.3,-16.39 -0.08,-7.52 -7.28,-6.95 -9.44,-5.71 0,0 -2,-3.1 -7.29,-1.63 a 10.83,10.83 0 0 0 -6.35,5.12 c 0,0 -3.57,-0.37 -7.28,3.61 -2.9,3.11 -8,11 -8,11 0,0 7.62,-11 3.89,-21.53 -4.43,-12.52 -10.84,-11.63 -10.84,-11.63 0,0 2.63,-1.52 9.91,-0.61 0,0 -3.37,-9 -16.77,-10.76 a 26,26 0 0 0 -21.54,7.32 z"
             style="fill:#ce78ce"
             id="path40" />
          <path
             d="m 171.2,384.14 v 0 a 10.59,10.59 0 0 0 -2.22,2.79 c 2.87,-0.05 6.35,0.2 8.13,5.37 0,0 2.24,-5.83 -5.91,-8.16 z"
             style="opacity:0.15"
             id="path41" />
          <path
             d="m 184.18,389.35 c 0,0 2.63,-1.67 0.8,-6.6 a 6.63,6.63 0 0 0 -2.36,0.69 6.69,6.69 0 0 1 1.56,5.91 z"
             style="opacity:0.15"
             id="path42" />
          <path
             d="m 176.23,399.47 a 21.28,21.28 0 0 0 -14.17,13.73 c -2.62,7.29 -1.31,12 1.62,12.57 2.93,0.57 4.31,0.1 6.64,-3.88 1.84,-4.9 3.51,-10.94 9.44,-16.35 1.75,-1.6 3.29,-3 4.62,-4.21 -0.38,-2.05 -3.22,-3.33 -8.15,-1.86 z"
             style="fill:#f28f8f"
             id="path43" />
          <path
             d="m 173.86,393.26 c -2,-0.69 -3.79,4 -1.49,4.8 1.91,0.63 4.16,-3.88 1.49,-4.8 z"
             style="fill:#f28f8f"
             id="path44" />
          <path
             d="m 181.92,390.79 c -2,-0.69 -3.79,4 -1.49,4.81 1.91,0.63 4.16,-3.89 1.49,-4.81 z"
             style="fill:#f28f8f"
             id="path45" />
          <path
             d="m 188.2,390.3 c -2,-0.69 -3.8,4 -1.49,4.8 1.91,0.63 4.15,-3.88 1.49,-4.8 z"
             style="fill:#f28f8f"
             id="path46" />
          <path
             d="m 160.65,428.54 c -11.87,-2.56 -10.28,-9 -15.59,-12.78 -5.31,-3.78 -17.14,-2.37 -36.11,-17.89 -18.97,-15.52 -19.85,-49.2 -7.73,-63.87 -7.65,9.41 -12.61,21.54 -11.13,38.33 a 45.2,45.2 0 0 0 1.41,7.91 c 3,12.76 9,21.41 19.4,29.29 12.38,9.4 29.5,14.51 37.1,17.35 7.6,2.84 13.35,6.5 18.48,1.67 a 9.69,9.69 0 0 0 1.12,-1.28 8.88,8.88 0 0 1 -6.95,1.27 z"
             style="opacity:0.05"
             id="path47" />
        </g>
        <path
           d="m 205.4,345.41 c -6.19,-8.51 -11.06,-12.49 -18.57,-16.69 v -4.87 c -1.13,0.39 -2.25,0.81 -3.34,1.26 a 51.08,51.08 0 0 0 -24.91,21.16 c 22.86,-1.72 33.15,9.94 35.7,16.65 1.79,4.71 3.28,8.33 6.08,8.17 a 2.85,2.85 0 0 0 2.89,-2.57 c 2,1.72 4.87,0.47 4.85,-1.89 a 2.5,2.5 0 0 0 2.94,-0.71 5.67,5.67 0 0 0 0.91,-4.41 C 211.5,357 209,350.39 205.4,345.41 Z"
           style="opacity:0.15"
           id="path48" />
        <g
           id="g52">
          <path
             d="m 212.9,358.16 c -0.44,-4.52 -2.92,-11.13 -6.54,-16.1 -6.2,-8.51 -11.06,-12.49 -18.58,-16.69 v -5.92 c 0,0 -27.09,5.55 -27.59,23.55 23.59,-2.17 32.45,9.8 35,16.62 1.79,4.71 3.28,8.33 6.08,8.17 a 2.85,2.85 0 0 0 2.89,-2.57 c 2,1.72 4.87,0.47 4.85,-1.89 a 2.5,2.5 0 0 0 2.94,-0.71 c 1.05,-1.27 1.11,-2.86 0.95,-4.46 z"
             style="fill:#ce78ce"
             id="path49" />
          <path
             d="m 212,362.57 v -0.05 a 1.74,1.74 0 0 1 -2.33,-1.1 c -0.86,-1.76 -1.14,-2.6 -1.57,-3 a 14.86,14.86 0 0 1 0.92,4.84 2.5,2.5 0 0 0 2.98,-0.69 z"
             style="opacity:0.15"
             id="path50" />
          <path
             d="m 207.49,365.71 a 2.7,2.7 0 0 1 -2.53,-2.08 c -0.68,-1.87 -1.06,-2.44 -1.49,-2.82 a 13.15,13.15 0 0 1 0.73,4.36 3.08,3.08 0 0 0 3.29,0.54 z"
             style="opacity:0.15"
             id="path51" />
          <path
             d="m 167.22,329.19 c 8.86,2.05 18.23,1.38 26.11,-0.39 -1.71,-1.19 -3.53,-2.3 -5.55,-3.43 v -5.92 c 0,0 -12.38,2.55 -20.56,9.74 z"
             style="opacity:0.15"
             id="path52" />
        </g>
        <path
           d="m 193.62,260.23 c 2.73,-8.65 14.67,-19.56 24.73,-16.39 5.66,1.78 3.39,22.67 3.39,22.67 0,0 -18.39,1.41 -28.12,-6.28 z"
           style="fill:#ce78ce"
           id="path53" />
        <path
           d="m 193.62,260.23 c 2.73,-8.65 14.67,-19.56 24.73,-16.39 5.66,1.78 3.39,22.67 3.39,22.67 0,0 -18.39,1.41 -28.12,-6.28 z"
           style="opacity:0.15"
           id="path54" />
        <path
           d="m 202.17,264.47 c 9.26,2.83 19.57,2 19.57,2 0,0 2.27,-20.89 -3.39,-22.67 -3.67,-0.5 -12.57,5.09 -16.18,20.67 z"
           style="fill:#ffa8a7"
           id="path55" />
        <path
           d="m 214.06,256.78 c -0.86,-2.32 0.8,-5.31 0.8,-5.31 -3.39,0 -7.81,3.48 -8.22,9.09 0,0 6.91,8.32 14,3.91 a 9.26,9.26 0 0 1 1.48,-3.31 c 0.06,-1.44 0.1,-3.06 0.07,-4.73 a 20.23,20.23 0 0 0 -8.13,0.35 z"
           style="fill:#f28f8f"
           id="path56" />
        <path
           d="m 170.17,268.47 c -7.53,-5 -23.67,-6.11 -29.55,2.65 -3.31,4.93 11.54,19.84 11.54,19.84 0,0 15.21,-10.41 18.01,-22.49 z"
           style="fill:#ce78ce"
           id="path57" />
        <path
           d="m 170.17,268.47 c -7.53,-5 -23.67,-6.11 -29.55,2.65 -3.31,4.93 11.54,19.84 11.54,19.84 0,0 15.21,-10.41 18.01,-22.49 z"
           style="opacity:0.15"
           id="path58" />
        <path
           d="m 166.14,277.12 c -5.47,8 -14,13.84 -14,13.84 0,0 -14.85,-14.91 -11.54,-19.84 2.55,-2.72 12.99,-3.91 25.54,6 z"
           style="fill:#ffa8a7"
           id="path59" />
        <path
           d="m 148.52,274.62 c 0,0 3.17,1.3 3.95,3.65 0,0 -4.6,2 -6.87,5.2 0.85,1.1 1.72,2.14 2.53,3.09 a 8.94,8.94 0 0 1 4,1.84 c 8.29,-1 8,-11.22 8,-11.22 -2.92,-4.18 -8.96,-4.68 -11.61,-2.56 z"
           style="fill:#f28f8f"
           id="path60" />
        <path
           d="m 201.89,322.07 c -9.63,3.39 -24,5.67 -36.69,1.72 -15.15,-4.72 -16,-25.52 -12.3,-35.1 3.7,-9.58 11.25,-19.34 28.58,-25.45 17.33,-6.11 29.35,-3.24 38.22,1.92 8.87,5.16 21.26,21.89 12.41,35.06 -7.43,11.04 -20.59,18.46 -30.22,21.85 z"
           style="fill:#ce78ce"
           id="path61" />
        <path
           d="m 201.81,319.9 c 19.19,-6.77 18.19,-18 13.34,-22.52 -4.85,-4.52 -12.89,-5.5 -22.07,-2.27 -9.18,3.23 -14.82,9.06 -15.78,15.6 -0.96,6.54 5.31,15.95 24.51,9.19 z"
           style="fill:#f0f0f0"
           id="path62" />
        <path
           d="m 196.56,311.86 c 0,0 0.78,3.25 3.2,2.44 2.42,-0.81 1,-3.88 1,-3.88 l -3,-2.18 z"
           style="fill:#f28f8f"
           id="path63" />
        <path
           d="m 196.44,304.69 -4.51,-0.5 a 0.6239391,0.6239391 0 0 1 0.14,-1.24 l 3.93,0.44 2.85,-2.77 a 0.62,0.62 0 0 1 0.88,0 0.63,0.63 0 0 1 0,0.88 z"
           style="fill:#963696"
           id="path64" />
        <path
           d="m 193.18,314 a 5.12,5.12 0 0 1 -4.82,-3.41 0.62459987,0.62459987 0 0 1 1.18,-0.41 3.8648739,3.8648739 0 0 0 7.29,-2.57 l -1.19,-3.38 a 0.62,0.62 0 1 1 1.17,-0.41 l 1.19,3.38 a 5.1,5.1 0 0 1 -3.12,6.51 5,5 0 0 1 -1.7,0.29 z"
           style="fill:#963696"
           id="path65" />
        <path
           d="m 201.64,311 a 5.16,5.16 0 0 1 -2.2,-0.5 5.06,5.06 0 0 1 -2.61,-2.91 l -1.19,-3.38 a 0.62,0.62 0 1 1 1.17,-0.41 l 1.19,3.38 a 3.84,3.84 0 0 0 2,2.2 3.87,3.87 0 0 0 5.32,-4.77 0.62,0.62 0 0 1 0.38,-0.79 0.61,0.61 0 0 1 0.79,0.38 5.11,5.11 0 0 1 -3.12,6.51 5,5 0 0 1 -1.73,0.29 z"
           style="fill:#963696"
           id="path66" />
        <path
           d="m 215.06,285.08 a 4.48,4.48 0 1 1 -5.71,-2.74 4.48,4.48 0 0 1 5.71,2.74 z"
           style="fill:#963696"
           id="path67" />
        <path
           d="m 169.66,301.07 a 4.47,4.47 0 1 0 2.73,-5.71 4.48,4.48 0 0 0 -2.73,5.71 z"
           style="fill:#963696"
           id="path68" />
        <path
           d="m 156.61,301.83 a 0.93,0.93 0 0 1 -0.66,-0.27 c -3.42,-3.49 -9.19,-7.07 -17.24,-4.26 a 0.93300589,0.93300589 0 0 1 -0.62,-1.76 c 9,-3.12 15.39,0.84 19.19,4.71 a 0.93,0.93 0 0 1 0,1.32 0.9,0.9 0 0 1 -0.67,0.26 z"
           style="fill:#963696"
           id="path69" />
        <path
           d="m 154.54,304.15 a 0.87,0.87 0 0 1 -0.49,-0.14 c -3.09,-1.9 -8.71,-1.91 -11.66,-0.64 a 0.93,0.93 0 0 1 -1.23,-0.48 1,1 0 0 1 0.49,-1.23 c 3.38,-1.45 9.71,-1.5 13.38,0.77 a 0.93,0.93 0 0 1 0.3,1.28 0.91,0.91 0 0 1 -0.79,0.44 z"
           style="fill:#963696"
           id="path70" />
        <path
           d="m 140.12,312 a 0.94,0.94 0 0 1 -0.6,-1.65 c 5.53,-4.66 12.69,-5.52 17,-4.35 a 0.93,0.93 0 0 1 -0.49,1.79 c -3.86,-1 -10.29,-0.24 -15.31,4 a 0.91,0.91 0 0 1 -0.6,0.21 z"
           style="fill:#963696"
           id="path71" />
        <path
           d="m 224.46,277.93 h -0.09 a 0.93,0.93 0 0 1 -0.84,-1 c 0.53,-5.4 3,-12.5 12,-15.69 a 0.93,0.93 0 0 1 0.63,1.75 c -8,2.87 -10.29,9.26 -10.77,14.12 a 0.92,0.92 0 0 1 -0.93,0.82 z"
           style="fill:#963696"
           id="path72" />
        <path
           d="m 227.52,278.44 a 1.18,1.18 0 0 1 -0.31,-0.05 0.92,0.92 0 0 1 -0.56,-1.19 c 1.43,-4.06 6.39,-8 9.94,-9 a 0.93,0.93 0 0 1 1.15,0.65 0.92,0.92 0 0 1 -0.65,1.14 c -3.1,0.87 -7.48,4.39 -8.69,7.81 a 0.93,0.93 0 0 1 -0.88,0.64 z"
           style="fill:#963696"
           id="path73" />
        <path
           d="m 228.47,282.39 a 0.9,0.9 0 0 1 -0.54,-0.18 0.93,0.93 0 0 1 -0.21,-1.3 c 2.63,-3.61 8.73,-7.4 16,-7.25 a 0.93,0.93 0 0 1 0,1.86 v 0 c -6.58,-0.15 -12.07,3.26 -14.42,6.49 a 0.93,0.93 0 0 1 -0.83,0.38 z"
           style="fill:#963696"
           id="path74" />
        <path
           d="m 208.32,260.69 c 0.8,-3.66 4.26,-7.18 7.65,-7.18 0,0 -1.67,3 -0.81,5.31 0,0 8.65,-2.27 11.77,1.74 0,0 -3.92,0.72 -5.19,5.95 -7.09,4.41 -13.42,-5.82 -13.42,-5.82 z"
           style="fill:#ce78ce"
           id="path75" />
        <path
           d="m 159,278 c -2.91,-2.36 -7.81,-2.95 -10.46,-0.83 0,0 3.17,1.3 3.95,3.65 0,0 -8.17,3.62 -8.11,8.71 0,0 3.54,-1.87 7.8,1.42 C 160.45,290 159,278 159,278 Z"
           style="fill:#ce78ce"
           id="path76" />
        <path
           d="m 189.34,261 c -1.18,0.27 -1.27,-1.92 -0.73,-4.64 0.49,-2.46 2.47,-7.37 -1,-7.31 -3.47,0.06 -7.2,3.18 -8.66,9.12 a 12.91,12.91 0 0 1 -2.14,-4.25 c -0.55,-2.24 -3.35,-2.44 -4.58,2 -0.94,3.39 0.69,6.78 1.59,8.2 0.5,0.79 0.29,2.1 -1.38,3 0,0 7.21,2.47 12.07,0 4.86,-2.47 4.83,-6.12 4.83,-6.12 z"
           style="fill:#ce78ce"
           id="path77" />
        <path
           d="m 180.79,280 a 2.17,2.17 0 0 0 2,-2.37 23.85,23.85 0 0 0 -5.51,-12.67 c -1.43,0.61 -2.8,1.25 -4.08,1.91 3.12,3.66 4.9,7.4 5.25,11.17 a 2.18,2.18 0 0 0 2.17,2 z"
           style="fill:#963696"
           id="path78" />
        <path
           d="m 194,272.55 a 2.19,2.19 0 0 0 2.14,1.76 2,2 0 0 0 0.42,0 2.18,2.18 0 0 0 1.72,-2.56 23.47,23.47 0 0 0 -6,-11.26 c -1.64,0.27 -3.32,0.62 -5.08,1.07 3.71,3.44 6,7.11 6.8,10.99 z"
           style="fill:#963696"
           id="path79" />
        <path
           d="m 180.12,263.76 c 2.29,2.53 5.95,7.38 6.82,13.27 a 2.17,2.17 0 0 0 2.15,1.86 h 0.33 a 2.18,2.18 0 0 0 1.83,-2.48 29.84,29.84 0 0 0 -6.69,-14.15 c -1,0.3 -2,0.63 -3.08,1 z"
           style="fill:#963696"
           id="path80" />
      </g>
      <path
         d="m 101.31,404.62 h -0.16 a 1.63,1.63 0 0 1 -1.47,-1.78 c 0.66,-6.88 7.42,-18.85 23.37,-23.63 15.46,-4.64 31.65,0.59 38.37,8.32 a 1.64,1.64 0 1 1 -2.47,2.15 c -4.95,-5.7 -19.49,-12 -35,-7.34 -14.4,4.32 -20.48,14.81 -21.06,20.81 a 1.64,1.64 0 0 1 -1.58,1.47 z"
         style="fill:#963696"
         id="path81" />
      <path
         d="m 117.32,417.12 a 1.64,1.64 0 0 1 -1.64,-1.62 c 0,-3.35 2.47,-14.77 10.8,-21.94 a 29.81,29.81 0 0 1 32.5,-4.27 1.64,1.64 0 0 1 -1.58,2.87 26.38,26.38 0 0 0 -28.79,3.84 c -7.36,6.33 -9.68,16.6 -9.66,19.43 a 1.64,1.64 0 0 1 -1.62,1.65 z"
         style="fill:#963696"
         id="path82" />
      <path
         d="m 96.38,251.94 c -4.83,11.38 -0.41,35.57 9.5,50.48 10.7,16.1 32.4,36.37 56.74,45.37 a 1.64,1.64 0 0 1 -0.57,3.17 1.62,1.62 0 0 1 -0.56,-0.1 c -25,-9.26 -47.34,-30.09 -58.33,-46.63 C 92,287.5 87.7,260.59 94.24,248.87 a 16.12,16.12 0 0 1 1.63,-2.41 28.89,28.89 0 0 1 0.51,5.48 z"
         style="fill:#963696"
         id="path83" />
    </g>
  </g>
  <g
     id="freepik--Sign--inject-4"
     style="display:inline" />
  <text
     xml:space="preserve"
     id="text182"
     style="font-style:normal;font-variant:normal;font-weight:normal;font-stretch:normal;font-size:85.3333px;line-height:0;font-family:te;-inkscape-font-specification:te;white-space:pre;shape-inside:url(#rect183);fill:#ce78ce;fill-opacity:1"
     transform="matrix(1.4402968,0,0,2.1878241,-48.992303,-123.82379)"><tspan
       x="81.160156"
       y="152.51629"
       id="tspan2"><tspan
         style="font-family:'Berlin Sans FB Demi';-inkscape-font-specification:'Berlin Sans FB Demi'"
         id="tspan1">500</tspan></tspan></text>
</svg>
